<?xml version="1.0" encoding="utf-8"?>
<!-- Svg Vector Icons : http://www.onlinewebfonts.com/icon -->
<!DOCTYPE svg PUBLIC "-//W3C//DTD SVG 1.1//EN" "http://www.w3.org/Graphics/SVG/1.1/DTD/svg11.dtd">
<svg version="1.1" xmlns="http://www.w3.org/2000/svg" xmlns:xlink="http://www.w3.org/1999/xlink" x="0px" y="0px" viewBox="0 0 256 256" enable-background="new 0 0 256 256" xml:space="preserve">
<metadata> Svg Vector Icons : http://www.onlinewebfonts.com/icon </metadata>
<g><g><path stroke-width="2" fill-opacity="0" stroke="#000000"  d="M10,128c0,65.2,52.8,118,118,118c65.2,0,118-52.8,118-118c0-65.2-52.8-118-118-118C62.8,10,10,62.8,10,128z"/><path stroke-width="2" fill-opacity="0" stroke="#000000"  d="M110.7,145.9c-1.1-1-1.9-1.7-2.7-2.5c-21.1-17.7-22.6-55.7-3-75.1c15.6-15.4,37.6-13.6,51.4,3.9c16.1,20.4,13,56.1-7.3,71.8c-0.5,0.4-0.9,0.8-2,1.8c3.8,1.6,7.2,3.1,10.7,4.4c8.4,3.1,16.8,6.1,25.2,9.2c8.9,3.3,13.3,10.2,12.4,19.6c-0.5,5.5-4.2,9.5-9.7,10.2c-1.6,0.2-3.3,0.2-5,0.2c-33.6,0-67.2,0-100.8,0c-2.4,0-4.9-0.1-7.2-0.9c-8.2-2.9-10.5-15.2-4-22.6c2.4-2.8,5.8-5.1,9.1-6.6c9.3-4.1,18.9-7.7,28.4-11.6C107.6,147.3,109,146.7,110.7,145.9L110.7,145.9z"/></g></g>
</svg>